<svg width="1920" height="1080" viewBox="0 0 1920 1080" fill="none" xmlns="http://www.w3.org/2000/svg">
<g clip-path="url(#clip0_25_67)">
<path d="M1920 340.74C1865.17 333.36 1810.56 325.98 1771.52 302.58C1732.27 279.36 1708.8 240.12 1669.55 211.32C1630.29 182.34 1575.04 163.8 1546.88 130.32C1518.72 96.84 1517.44 48.42 1516.16 0H1920V340.74Z" fill="#ECF6FF"/>
<path d="M1920 170.28C1892.69 166.68 1865.17 162.9 1845.76 151.38C1826.13 139.68 1814.4 120.06 1794.77 105.66C1775.15 91.26 1747.63 81.9 1733.55 65.16C1719.25 48.42 1718.83 24.3 1718.19 0H1920V170.28Z" fill="#D8EEFE"/>
<path d="M0 739.26C48.4267 754.02 96.8533 768.78 145.28 783.9C193.707 799.2 241.92 814.86 282.027 842.04C322.133 869.22 354.133 907.92 373.12 949.68C392.107 991.26 397.867 1035.54 403.84 1080H0V739.26Z" fill="#ECF6FF"/>
<path d="M0 909.72C24.32 917.1 48.4267 924.48 72.7467 932.04C96.8533 939.6 120.96 947.34 141.013 961.02C161.067 974.52 177.067 993.96 186.453 1014.84C196.053 1035.54 199.04 1057.86 201.813 1080H0V909.72Z" fill="#D8EEFE"/>
</g>
<defs>
<clipPath id="clip0_25_67">
<rect width="1920" height="1080" fill="white"/>
</clipPath>
</defs>
</svg>
